HIERARCHY
ROOT root
{
	OFFSET	0	13.1	24.9
	CHANNELS 6  Xposition Yposition Zposition Xrotation Yrotation Zrotation
	JOINT spine_1
	{
		OFFSET	0	9.99999	0
		CHANNELS 3  Xrotation Yrotation Zrotation
		JOINT spine_2
		{
			OFFSET	0	112	-10
			CHANNELS 3  Xrotation Yrotation Zrotation
			JOINT spine_3
			{
				OFFSET	0	206.5	19.3
				CHANNELS 3  Xrotation Yrotation Zrotation
				JOINT spine_4
				{
					OFFSET	0	110.4	14.6
					CHANNELS 3  Xrotation Yrotation Zrotation
					JOINT neck_1
					{
						OFFSET	0	71.8	-50.3
						CHANNELS 3  Xrotation Yrotation Zrotation
						JOINT neck_2
						{
							OFFSET	0	86.2	-25.8
							CHANNELS 3  Xrotation Yrotation Zrotation
							JOINT head_ee
							{
								OFFSET	0	179.8	-8.7
								CHANNELS 3  Xrotation Yrotation Zrotation
								End Site
								{
									OFFSET	1	0	0
								}
							}
						}
					}
					JOINT left_clavicle
					{
						OFFSET	-43.2	22.4	-70.8
						CHANNELS 3  Xrotation Yrotation Zrotation
						JOINT left_shoulder
						{
							OFFSET	-93.9	-5.79999	48.7
							CHANNELS 3  Xrotation Yrotation Zrotation
							JOINT left_elbow
							{
								OFFSET	-291.4	-30.8	15.2
								CHANNELS 3  Xrotation Yrotation Zrotation
								JOINT left_lowarm_twist
								{
									OFFSET	-110.7	-3.89999	13.6
									CHANNELS 3  Xrotation Yrotation Zrotation
									JOINT left_hand
									{
										OFFSET	-110.7	-3.89999	13.6
										CHANNELS 3  Xrotation Yrotation Zrotation
										JOINT left_ee
										{
											OFFSET	-80.8	-5.10001	12.1
											CHANNELS 3  Xrotation Yrotation Zrotation
											End Site
											{
												OFFSET	1	0	0
											}
										}
									}
								}
							}
						}
					}
					JOINT right_clavicle
					{
						OFFSET	43.2	22.4	-70.8
						CHANNELS 3  Xrotation Yrotation Zrotation
						JOINT right_shoulder
						{
							OFFSET	93.9	-5.79999	48.7
							CHANNELS 3  Xrotation Yrotation Zrotation
							JOINT right_elbow
							{
								OFFSET	291.4	-30.8	15.2
								CHANNELS 3  Xrotation Yrotation Zrotation
								JOINT right_lowarm_twist
								{
									OFFSET	110.7	-3.89999	13.6
									CHANNELS 3  Xrotation Yrotation Zrotation
									JOINT right_hand
									{
										OFFSET	110.7	-3.89999	13.6
										CHANNELS 3  Xrotation Yrotation Zrotation
										JOINT right_ee
										{
											OFFSET	80.8	-5.10001	12.1
											CHANNELS 3  Xrotation Yrotation Zrotation
											End Site
											{
												OFFSET	1	0	0
											}
										}
									}
								}
							}
						}
					}
				}
			}
		}
	}
	JOINT left_hip
	{
		OFFSET	-82.8	-127.5	0.300001
		CHANNELS 3  Xrotation Yrotation Zrotation
		JOINT left_knee
		{
			OFFSET	-28.2	-396.7	2.2
			CHANNELS 3  Xrotation Yrotation Zrotation
			JOINT left_ankle
			{
				OFFSET	-11.7	-411.3	35.4
				CHANNELS 3  Xrotation Yrotation Zrotation
				JOINT left_toes
				{
					OFFSET	0	-60	-88.6
					CHANNELS 3  Xrotation Yrotation Zrotation
					JOINT left_foot_ee
					{
						OFFSET	-22.5	-16.5	-42.2
						CHANNELS 3  Xrotation Yrotation Zrotation
						End Site
						{
							OFFSET	1	0	0
						}
					}
				}
			}
		}
	}
	JOINT right_hip
	{
		OFFSET	82.8	-127.5	0.300001
		CHANNELS 3  Xrotation Yrotation Zrotation
		JOINT right_knee
		{
			OFFSET	28.2	-396.7	2.2
			CHANNELS 3  Xrotation Yrotation Zrotation
			JOINT right_ankle
			{
				OFFSET	11.7	-411.3	35.4
				CHANNELS 3  Xrotation Yrotation Zrotation
				JOINT right_toes
				{
					OFFSET	0	-60	-88.6
					CHANNELS 3  Xrotation Yrotation Zrotation
					JOINT right_foot_ee
					{
						OFFSET	22.5	-16.5	-42.2
						CHANNELS 3  Xrotation Yrotation Zrotation
						End Site
						{
							OFFSET	1	0	0
						}
					}
				}
			}
		}
	}
}
MOTION
Frames: 6
Frame Time: 0.02
3574.42 741.953 -1474.73 175.7336592 53.3226117798 -175.585644013 -0.71103 0.0623261 0.110979 -0.711025 0.0551379 0.11472 -0.710907 0.0282573 0.124106 -0.710926 0.047503 0.118086 -10.3445 3.36031 -1.96832 -10.3523 7.65258 -1.05934 -0.0 0.0 -0.0 -1.36178 0.619587 -2.54184 -1.3346 -25.9865 68.0661 1.7217 -40.4568 0.634474 23.2939 0.224518 -2.94669 0.406065 6.98137 5.56046 -0.0 0.0 -0.0 8.7332 20.8625 -16.518 -21.1416 22.837 -63.4187 0.70525 19.2574 -0.119649 -3.8635 0.152045 -0.469762 2.01804 -0.842132 -13.9458 0.0 0.0 0.0 6.50156 27.3866 -10.2461 -6.37254 0.209434 0.955071 0.875734 -5.30215 -0.131619 39.7726 -0.0 -0.0 -0.0 0.0 -0.0 0.33817 11.3418 -8.73329 -7.29137 -0.230818 -1.09445 18.8301 9.47464 2.69802 -23.0107 0.0 0.0 0.0 0.0 0.0 
3574.42 741.953 -1474.73 175.633177982 54.296541455 -175.46114559 -0.71103 0.0623261 0.110979 -0.711025 0.0551379 0.11472 -0.710907 0.0282573 0.124106 -0.710926 0.047503 0.118086 -10.3445 3.36031 -1.96832 -10.3523 7.65258 -1.05934 -0.0 0.0 -0.0 -1.36178 0.619587 -2.54184 -1.3346 -25.9865 68.0661 1.7217 -40.4568 0.634474 23.2939 0.224518 -2.94669 0.406065 6.98137 5.56046 -0.0 0.0 -0.0 8.7332 20.8625 -16.518 -21.1416 22.837 -63.4187 0.70525 19.2574 -0.119649 -3.8635 0.152045 -0.469762 2.01804 -0.842132 -13.9458 0.0 0.0 0.0 6.50156 27.3866 -10.2461 -6.37254 0.209434 0.955071 0.875734 -5.30215 -0.131619 39.7726 -0.0 -0.0 -0.0 0.0 -0.0 0.33817 11.3418 -8.73329 -7.29137 -0.230818 -1.09445 18.8301 9.47464 2.69802 -23.0107 0.0 0.0 0.0 0.0 0.0 
3559.01614764 740.857 -1463.18052691 175.154761306 53.2808172696 -175.460931798 -0.75488 0.0891608 0.147515 -0.754872 0.0795934 0.15289 -0.754646 0.043489 0.16679 -0.754678 0.0692846 0.157829 -9.91346 3.34564 -1.96851 -9.91813 7.62787 -1.09267 -0.0 0.0 -0.0 -1.31804 0.814989 -2.42965 -2.92845 -26.016 67.966 1.69737 -40.0547 0.61875 24.3024 0.207045 -3.07433 0.64124 5.99425 6.71104 -0.0 0.0 -0.0 9.03467 22.1416 -17.0808 -20.1555 24.5911 -61.9519 0.68401 18.7184 -0.112738 -3.31129 0.128375 -0.403253 2.18054 -2.08711 -15.5539 0.0 0.0 0.0 6.55682 27.3857 -10.2748 -7.31573 0.231355 1.09815 4.7507 -3.64769 -0.70152 39.6546 -0.0 -0.0 -0.0 0.0 -0.0 -0.368842 13.0864 -8.48161 -7.6898 -0.239395 -1.15499 19.2793 10.229 2.76735 -23.0354 0.0 0.0 0.0 0.0 0.0 
3558.70092719 740.857 -1463.61335725 174.965361357 54.8684371717 -175.22706428 -0.75488 0.0891608 0.147515 -0.754872 0.0795934 0.15289 -0.754646 0.043489 0.16679 -0.754678 0.0692846 0.157829 -9.91346 3.34564 -1.96851 -9.91813 7.62787 -1.09267 -0.0 0.0 -0.0 -1.31804 0.814989 -2.42965 -2.92845 -26.016 67.966 1.69737 -40.0547 0.61875 24.3024 0.207045 -3.07433 0.64124 5.99425 6.71104 -0.0 0.0 -0.0 9.03467 22.1416 -17.0808 -20.1555 24.5911 -61.9519 0.68401 18.7184 -0.112738 -3.31129 0.128375 -0.403253 2.18054 -2.08711 -15.5539 0.0 0.0 0.0 6.55682 27.3857 -10.2748 -7.31573 0.231355 1.09815 4.7507 -3.64769 -0.70152 39.6546 -0.0 -0.0 -0.0 0.0 -0.0 -0.368842 13.0864 -8.48161 -7.6898 -0.239395 -1.15499 19.2793 10.229 2.76735 -23.0354 0.0 0.0 0.0 0.0 0.0 
3558.41001244 740.857 -1464.03657706 174.765357166 56.3907021067 -174.984775394 -0.75488 0.0891608 0.147515 -0.754872 0.0795934 0.15289 -0.754646 0.043489 0.16679 -0.754678 0.0692846 0.157829 -9.91346 3.34564 -1.96851 -9.91813 7.62787 -1.09267 -0.0 0.0 -0.0 -1.31804 0.814989 -2.42965 -2.92845 -26.016 67.966 1.69737 -40.0547 0.61875 24.3024 0.207045 -3.07433 0.64124 5.99425 6.71104 -0.0 0.0 -0.0 9.03467 22.1416 -17.0808 -20.1555 24.5911 -61.9519 0.68401 18.7184 -0.112738 -3.31129 0.128375 -0.403253 2.18054 -2.08711 -15.5539 0.0 0.0 0.0 6.55682 27.3857 -10.2748 -7.31573 0.231355 1.09815 4.7507 -3.64769 -0.70152 39.6546 -0.0 -0.0 -0.0 0.0 -0.0 -0.368842 13.0864 -8.48161 -7.6898 -0.239395 -1.15499 19.2793 10.229 2.76735 -23.0354 0.0 0.0 0.0 0.0 0.0 
3558.0441402 740.857 -1464.60576117 174.470043369 58.3955813223 -174.634261893 -0.75488 0.0891608 0.147515 -0.754872 0.0795934 0.15289 -0.754646 0.043489 0.16679 -0.754678 0.0692846 0.157829 -9.91346 3.34564 -1.96851 -9.91813 7.62787 -1.09267 -0.0 0.0 -0.0 -1.31804 0.814989 -2.42965 -2.92845 -26.016 67.966 1.69737 -40.0547 0.61875 24.3024 0.207045 -3.07433 0.64124 5.99425 6.71104 -0.0 0.0 -0.0 9.03467 22.1416 -17.0808 -20.1555 24.5911 -61.9519 0.68401 18.7184 -0.112738 -3.31129 0.128375 -0.403253 2.18054 -2.08711 -15.5539 0.0 0.0 0.0 6.55682 27.3857 -10.2748 -7.31573 0.231355 1.09815 4.7507 -3.64769 -0.70152 39.6546 -0.0 -0.0 -0.0 0.0 -0.0 -0.368842 13.0864 -8.48161 -7.6898 -0.239395 -1.15499 19.2793 10.229 2.76735 -23.0354 0.0 0.0 0.0 0.0 0.0 
